<mxfile host="app.diagrams.net" modified="2024-03-01T01:22:34.480Z" agent="Mozilla/5.0 (Windows NT 10.0; Win64; x64) AppleWebKit/537.36 (KHTML, like Gecko) Chrome/121.0.0.0 Safari/537.36 OPR/107.0.0.0" etag="2qfUNpuNoI9ne5Z0N9kt" version="24.0.0" type="github">
  <diagram name="Page-1" id="e7e014a7-5840-1c2e-5031-d8a46d1fe8dd">
    <mxGraphModel dx="3189" dy="793" grid="1" gridSize="10" guides="1" tooltips="1" connect="1" arrows="1" fold="1" page="1" pageScale="1" pageWidth="1169" pageHeight="826" background="none" math="0" shadow="0">
      <root>
        <mxCell id="0" />
        <mxCell id="1" parent="0" />
        <mxCell id="3" value="School DataBase" style="swimlane;whiteSpace=wrap" parent="1" vertex="1">
          <mxGeometry x="-310" width="1440" height="820" as="geometry" />
        </mxCell>
        <mxCell id="U_tPJ1Lx-J0ZRbuGnvS1-117" style="edgeStyle=orthogonalEdgeStyle;rounded=0;orthogonalLoop=1;jettySize=auto;html=1;exitX=0.5;exitY=1;exitDx=0;exitDy=0;entryX=0.5;entryY=0;entryDx=0;entryDy=0;" parent="3" source="U_tPJ1Lx-J0ZRbuGnvS1-43" target="U_tPJ1Lx-J0ZRbuGnvS1-114" edge="1">
          <mxGeometry relative="1" as="geometry" />
        </mxCell>
        <mxCell id="U_tPJ1Lx-J0ZRbuGnvS1-43" value="Curso" style="rounded=0;whiteSpace=wrap;html=1;" parent="3" vertex="1">
          <mxGeometry x="120" y="150" width="120" height="60" as="geometry" />
        </mxCell>
        <mxCell id="U_tPJ1Lx-J0ZRbuGnvS1-105" style="edgeStyle=orthogonalEdgeStyle;rounded=0;orthogonalLoop=1;jettySize=auto;html=1;entryX=0.5;entryY=0;entryDx=0;entryDy=0;exitX=0;exitY=0.5;exitDx=0;exitDy=0;" parent="3" source="U_tPJ1Lx-J0ZRbuGnvS1-44" target="U_tPJ1Lx-J0ZRbuGnvS1-83" edge="1">
          <mxGeometry relative="1" as="geometry">
            <mxPoint x="411.00000000000045" y="314" as="targetPoint" />
            <mxPoint x="500" y="239.99999999999977" as="sourcePoint" />
          </mxGeometry>
        </mxCell>
        <mxCell id="JLKHKsEkwaxbaODmMWDU-4" value="" style="edgeStyle=orthogonalEdgeStyle;rounded=0;orthogonalLoop=1;jettySize=auto;html=1;" edge="1" parent="3" source="U_tPJ1Lx-J0ZRbuGnvS1-44" target="JLKHKsEkwaxbaODmMWDU-3">
          <mxGeometry relative="1" as="geometry" />
        </mxCell>
        <mxCell id="U_tPJ1Lx-J0ZRbuGnvS1-44" value="Aluno" style="rounded=0;whiteSpace=wrap;html=1;" parent="3" vertex="1">
          <mxGeometry x="531" y="140" width="120" height="60" as="geometry" />
        </mxCell>
        <mxCell id="U_tPJ1Lx-J0ZRbuGnvS1-45" value="Avaliação" style="rounded=0;whiteSpace=wrap;html=1;" parent="3" vertex="1">
          <mxGeometry x="701" y="217" width="120" height="60" as="geometry" />
        </mxCell>
        <mxCell id="JLKHKsEkwaxbaODmMWDU-11" value="" style="edgeStyle=orthogonalEdgeStyle;rounded=0;orthogonalLoop=1;jettySize=auto;html=1;" edge="1" parent="3" source="U_tPJ1Lx-J0ZRbuGnvS1-47" target="JLKHKsEkwaxbaODmMWDU-10">
          <mxGeometry relative="1" as="geometry" />
        </mxCell>
        <mxCell id="U_tPJ1Lx-J0ZRbuGnvS1-47" value="Turma" style="rounded=0;whiteSpace=wrap;html=1;" parent="3" vertex="1">
          <mxGeometry x="421" y="380" width="120" height="60" as="geometry" />
        </mxCell>
        <mxCell id="U_tPJ1Lx-J0ZRbuGnvS1-99" value="" style="edgeStyle=orthogonalEdgeStyle;rounded=0;orthogonalLoop=1;jettySize=auto;html=1;" parent="3" source="U_tPJ1Lx-J0ZRbuGnvS1-48" target="U_tPJ1Lx-J0ZRbuGnvS1-98" edge="1">
          <mxGeometry relative="1" as="geometry" />
        </mxCell>
        <mxCell id="JLKHKsEkwaxbaODmMWDU-15" value="" style="edgeStyle=orthogonalEdgeStyle;rounded=0;orthogonalLoop=1;jettySize=auto;html=1;" edge="1" parent="3" source="U_tPJ1Lx-J0ZRbuGnvS1-48" target="JLKHKsEkwaxbaODmMWDU-14">
          <mxGeometry relative="1" as="geometry" />
        </mxCell>
        <mxCell id="U_tPJ1Lx-J0ZRbuGnvS1-48" value="Professor" style="rounded=0;whiteSpace=wrap;html=1;" parent="3" vertex="1">
          <mxGeometry x="590" y="530" width="120" height="60" as="geometry" />
        </mxCell>
        <mxCell id="U_tPJ1Lx-J0ZRbuGnvS1-49" value="Id_curso" style="ellipse;whiteSpace=wrap;html=1;fillColor=#fff2cc;strokeColor=#d6b656;" parent="3" vertex="1">
          <mxGeometry x="20" y="210" width="80" height="50" as="geometry" />
        </mxCell>
        <mxCell id="U_tPJ1Lx-J0ZRbuGnvS1-50" value="nome_curso" style="ellipse;whiteSpace=wrap;html=1;" parent="3" vertex="1">
          <mxGeometry x="11" y="100" width="80" height="50" as="geometry" />
        </mxCell>
        <mxCell id="U_tPJ1Lx-J0ZRbuGnvS1-51" value="matricula" style="ellipse;whiteSpace=wrap;html=1;fillColor=#dae8fc;strokeColor=#6c8ebf;" parent="3" vertex="1">
          <mxGeometry x="471" y="64" width="80" height="50" as="geometry" />
        </mxCell>
        <mxCell id="U_tPJ1Lx-J0ZRbuGnvS1-52" value="nome" style="ellipse;whiteSpace=wrap;html=1;" parent="3" vertex="1">
          <mxGeometry x="631" y="70" width="80" height="50" as="geometry" />
        </mxCell>
        <mxCell id="U_tPJ1Lx-J0ZRbuGnvS1-53" value="cpf" style="ellipse;whiteSpace=wrap;html=1;" parent="3" vertex="1">
          <mxGeometry x="551" y="50" width="80" height="50" as="geometry" />
        </mxCell>
        <mxCell id="U_tPJ1Lx-J0ZRbuGnvS1-56" value="nota" style="ellipse;whiteSpace=wrap;html=1;" parent="3" vertex="1">
          <mxGeometry x="911" y="277" width="80" height="50" as="geometry" />
        </mxCell>
        <mxCell id="U_tPJ1Lx-J0ZRbuGnvS1-55" value="descrição" style="ellipse;whiteSpace=wrap;html=1;" parent="3" vertex="1">
          <mxGeometry x="931" y="192" width="80" height="50" as="geometry" />
        </mxCell>
        <mxCell id="U_tPJ1Lx-J0ZRbuGnvS1-60" value="id_turma" style="ellipse;whiteSpace=wrap;html=1;fillColor=#d5e8d4;strokeColor=#82b366;" parent="3" vertex="1">
          <mxGeometry x="430" y="468" width="80" height="50" as="geometry" />
        </mxCell>
        <mxCell id="U_tPJ1Lx-J0ZRbuGnvS1-62" value="matricula" style="ellipse;whiteSpace=wrap;html=1;fillColor=#f8cecc;strokeColor=#b85450;" parent="3" vertex="1">
          <mxGeometry x="572" y="635" width="80" height="50" as="geometry" />
        </mxCell>
        <mxCell id="U_tPJ1Lx-J0ZRbuGnvS1-61" value="nome" style="ellipse;whiteSpace=wrap;html=1;" parent="3" vertex="1">
          <mxGeometry x="680" y="633" width="80" height="50" as="geometry" />
        </mxCell>
        <mxCell id="U_tPJ1Lx-J0ZRbuGnvS1-66" value="" style="endArrow=none;html=1;rounded=0;exitX=1;exitY=0;exitDx=0;exitDy=0;entryX=0;entryY=0.5;entryDx=0;entryDy=0;" parent="3" source="U_tPJ1Lx-J0ZRbuGnvS1-49" target="U_tPJ1Lx-J0ZRbuGnvS1-43" edge="1">
          <mxGeometry width="50" height="50" relative="1" as="geometry">
            <mxPoint x="70" y="260" as="sourcePoint" />
            <mxPoint x="120" y="210" as="targetPoint" />
          </mxGeometry>
        </mxCell>
        <mxCell id="U_tPJ1Lx-J0ZRbuGnvS1-67" value="" style="endArrow=none;html=1;rounded=0;entryX=0;entryY=0.5;entryDx=0;entryDy=0;exitX=1;exitY=1;exitDx=0;exitDy=0;" parent="3" source="U_tPJ1Lx-J0ZRbuGnvS1-50" target="U_tPJ1Lx-J0ZRbuGnvS1-43" edge="1">
          <mxGeometry width="50" height="50" relative="1" as="geometry">
            <mxPoint x="100" y="150" as="sourcePoint" />
            <mxPoint x="150" y="100" as="targetPoint" />
          </mxGeometry>
        </mxCell>
        <mxCell id="U_tPJ1Lx-J0ZRbuGnvS1-68" value="" style="endArrow=none;html=1;rounded=0;entryX=0.5;entryY=0;entryDx=0;entryDy=0;exitX=0.5;exitY=1;exitDx=0;exitDy=0;" parent="3" source="U_tPJ1Lx-J0ZRbuGnvS1-53" target="U_tPJ1Lx-J0ZRbuGnvS1-44" edge="1">
          <mxGeometry width="50" height="50" relative="1" as="geometry">
            <mxPoint x="450" y="130" as="sourcePoint" />
            <mxPoint x="410" y="210" as="targetPoint" />
          </mxGeometry>
        </mxCell>
        <mxCell id="U_tPJ1Lx-J0ZRbuGnvS1-69" value="" style="endArrow=none;html=1;rounded=0;entryX=0.5;entryY=1;entryDx=0;entryDy=0;exitX=0.5;exitY=0;exitDx=0;exitDy=0;" parent="3" source="U_tPJ1Lx-J0ZRbuGnvS1-44" target="U_tPJ1Lx-J0ZRbuGnvS1-52" edge="1">
          <mxGeometry width="50" height="50" relative="1" as="geometry">
            <mxPoint x="420" y="150" as="sourcePoint" />
            <mxPoint x="470" y="100" as="targetPoint" />
          </mxGeometry>
        </mxCell>
        <mxCell id="U_tPJ1Lx-J0ZRbuGnvS1-70" value="" style="endArrow=none;html=1;rounded=0;exitX=0.5;exitY=0;exitDx=0;exitDy=0;entryX=0.5;entryY=1;entryDx=0;entryDy=0;" parent="3" source="U_tPJ1Lx-J0ZRbuGnvS1-44" target="U_tPJ1Lx-J0ZRbuGnvS1-51" edge="1">
          <mxGeometry width="50" height="50" relative="1" as="geometry">
            <mxPoint x="340" y="150" as="sourcePoint" />
            <mxPoint x="390" y="100" as="targetPoint" />
          </mxGeometry>
        </mxCell>
        <mxCell id="U_tPJ1Lx-J0ZRbuGnvS1-71" value="" style="endArrow=none;html=1;rounded=0;entryX=1;entryY=0.5;entryDx=0;entryDy=0;exitX=0;exitY=0.5;exitDx=0;exitDy=0;" parent="3" source="U_tPJ1Lx-J0ZRbuGnvS1-55" target="U_tPJ1Lx-J0ZRbuGnvS1-45" edge="1">
          <mxGeometry width="50" height="50" relative="1" as="geometry">
            <mxPoint x="580" y="220" as="sourcePoint" />
            <mxPoint x="610" y="190" as="targetPoint" />
          </mxGeometry>
        </mxCell>
        <mxCell id="U_tPJ1Lx-J0ZRbuGnvS1-72" value="" style="endArrow=none;html=1;rounded=0;exitX=0;exitY=0;exitDx=0;exitDy=0;entryX=1;entryY=0.5;entryDx=0;entryDy=0;" parent="3" source="U_tPJ1Lx-J0ZRbuGnvS1-56" target="U_tPJ1Lx-J0ZRbuGnvS1-45" edge="1">
          <mxGeometry width="50" height="50" relative="1" as="geometry">
            <mxPoint x="570" y="360" as="sourcePoint" />
            <mxPoint x="620" y="310" as="targetPoint" />
          </mxGeometry>
        </mxCell>
        <mxCell id="U_tPJ1Lx-J0ZRbuGnvS1-73" value="" style="endArrow=none;html=1;rounded=0;exitX=1;exitY=0.5;exitDx=0;exitDy=0;entryX=0;entryY=1;entryDx=0;entryDy=0;" parent="3" source="U_tPJ1Lx-J0ZRbuGnvS1-45" target="U_tPJ1Lx-J0ZRbuGnvS1-54" edge="1">
          <mxGeometry width="50" height="50" relative="1" as="geometry">
            <mxPoint x="650" y="120" as="sourcePoint" />
            <mxPoint x="700" y="70" as="targetPoint" />
          </mxGeometry>
        </mxCell>
        <mxCell id="U_tPJ1Lx-J0ZRbuGnvS1-74" value="" style="endArrow=none;html=1;rounded=0;entryX=0.5;entryY=1;entryDx=0;entryDy=0;exitX=0.5;exitY=0;exitDx=0;exitDy=0;" parent="3" source="U_tPJ1Lx-J0ZRbuGnvS1-60" target="U_tPJ1Lx-J0ZRbuGnvS1-47" edge="1">
          <mxGeometry width="50" height="50" relative="1" as="geometry">
            <mxPoint x="1030" y="230" as="sourcePoint" />
            <mxPoint x="1030" y="180" as="targetPoint" />
          </mxGeometry>
        </mxCell>
        <mxCell id="U_tPJ1Lx-J0ZRbuGnvS1-75" value="" style="endArrow=none;html=1;rounded=0;entryX=0.5;entryY=0;entryDx=0;entryDy=0;exitX=0.5;exitY=1;exitDx=0;exitDy=0;" parent="3" source="U_tPJ1Lx-J0ZRbuGnvS1-48" target="U_tPJ1Lx-J0ZRbuGnvS1-61" edge="1">
          <mxGeometry width="50" height="50" relative="1" as="geometry">
            <mxPoint x="211" y="620" as="sourcePoint" />
            <mxPoint x="261" y="570" as="targetPoint" />
          </mxGeometry>
        </mxCell>
        <mxCell id="U_tPJ1Lx-J0ZRbuGnvS1-76" value="" style="endArrow=none;html=1;rounded=0;entryX=0.5;entryY=0;entryDx=0;entryDy=0;exitX=0.5;exitY=1;exitDx=0;exitDy=0;" parent="3" source="U_tPJ1Lx-J0ZRbuGnvS1-48" target="U_tPJ1Lx-J0ZRbuGnvS1-62" edge="1">
          <mxGeometry width="50" height="50" relative="1" as="geometry">
            <mxPoint x="221" y="500" as="sourcePoint" />
            <mxPoint x="271" y="450" as="targetPoint" />
          </mxGeometry>
        </mxCell>
        <mxCell id="U_tPJ1Lx-J0ZRbuGnvS1-77" value="" style="endArrow=none;html=1;rounded=0;entryX=0.5;entryY=0;entryDx=0;entryDy=0;exitX=0.5;exitY=1;exitDx=0;exitDy=0;" parent="3" source="U_tPJ1Lx-J0ZRbuGnvS1-46" target="U_tPJ1Lx-J0ZRbuGnvS1-57" edge="1">
          <mxGeometry width="50" height="50" relative="1" as="geometry">
            <mxPoint x="591" y="380" as="sourcePoint" />
            <mxPoint x="131" y="668" as="targetPoint" />
          </mxGeometry>
        </mxCell>
        <mxCell id="U_tPJ1Lx-J0ZRbuGnvS1-78" value="" style="endArrow=none;html=1;rounded=0;exitX=0.5;exitY=1;exitDx=0;exitDy=0;entryX=0.5;entryY=0;entryDx=0;entryDy=0;" parent="3" source="U_tPJ1Lx-J0ZRbuGnvS1-46" target="U_tPJ1Lx-J0ZRbuGnvS1-59" edge="1">
          <mxGeometry width="50" height="50" relative="1" as="geometry">
            <mxPoint x="721" y="190" as="sourcePoint" />
            <mxPoint x="771" y="140" as="targetPoint" />
          </mxGeometry>
        </mxCell>
        <mxCell id="U_tPJ1Lx-J0ZRbuGnvS1-79" value="" style="endArrow=none;html=1;rounded=0;entryX=0.5;entryY=0;entryDx=0;entryDy=0;exitX=0.5;exitY=1;exitDx=0;exitDy=0;" parent="3" source="U_tPJ1Lx-J0ZRbuGnvS1-46" target="U_tPJ1Lx-J0ZRbuGnvS1-58" edge="1">
          <mxGeometry width="50" height="50" relative="1" as="geometry">
            <mxPoint x="561" y="340" as="sourcePoint" />
            <mxPoint x="611" y="290" as="targetPoint" />
          </mxGeometry>
        </mxCell>
        <mxCell id="JLKHKsEkwaxbaODmMWDU-7" style="edgeStyle=orthogonalEdgeStyle;rounded=0;orthogonalLoop=1;jettySize=auto;html=1;exitX=0.5;exitY=1;exitDx=0;exitDy=0;entryX=0.5;entryY=0;entryDx=0;entryDy=0;" edge="1" parent="3" source="U_tPJ1Lx-J0ZRbuGnvS1-83" target="U_tPJ1Lx-J0ZRbuGnvS1-47">
          <mxGeometry relative="1" as="geometry" />
        </mxCell>
        <mxCell id="U_tPJ1Lx-J0ZRbuGnvS1-83" value="Matricula" style="rhombus;whiteSpace=wrap;html=1;" parent="3" vertex="1">
          <mxGeometry x="441" y="192" width="80" height="80" as="geometry" />
        </mxCell>
        <mxCell id="U_tPJ1Lx-J0ZRbuGnvS1-54" value="id_avaliação" style="ellipse;whiteSpace=wrap;html=1;fillColor=#ffe6cc;strokeColor=#d79b00;" parent="3" vertex="1">
          <mxGeometry x="891" y="107" width="80" height="50" as="geometry" />
        </mxCell>
        <mxCell id="U_tPJ1Lx-J0ZRbuGnvS1-46" value="Disciplina" style="rounded=0;whiteSpace=wrap;html=1;" parent="3" vertex="1">
          <mxGeometry x="80" y="420" width="120" height="60" as="geometry" />
        </mxCell>
        <mxCell id="U_tPJ1Lx-J0ZRbuGnvS1-57" value="ementa" style="ellipse;whiteSpace=wrap;html=1;" parent="3" vertex="1">
          <mxGeometry x="50" y="550" width="80" height="50" as="geometry" />
        </mxCell>
        <mxCell id="U_tPJ1Lx-J0ZRbuGnvS1-58" value="nome" style="ellipse;whiteSpace=wrap;html=1;" parent="3" vertex="1">
          <mxGeometry x="140" y="616" width="80" height="50" as="geometry" />
        </mxCell>
        <mxCell id="U_tPJ1Lx-J0ZRbuGnvS1-59" value="id_disciplina" style="ellipse;whiteSpace=wrap;html=1;fillColor=#e1d5e7;strokeColor=#9673a6;" parent="3" vertex="1">
          <mxGeometry x="230" y="616" width="80" height="50" as="geometry" />
        </mxCell>
        <mxCell id="U_tPJ1Lx-J0ZRbuGnvS1-100" style="edgeStyle=orthogonalEdgeStyle;rounded=0;orthogonalLoop=1;jettySize=auto;html=1;exitX=1;exitY=0.5;exitDx=0;exitDy=0;entryX=0.5;entryY=1;entryDx=0;entryDy=0;" parent="3" source="U_tPJ1Lx-J0ZRbuGnvS1-98" target="U_tPJ1Lx-J0ZRbuGnvS1-45" edge="1">
          <mxGeometry relative="1" as="geometry" />
        </mxCell>
        <mxCell id="U_tPJ1Lx-J0ZRbuGnvS1-98" value="Aplica" style="rhombus;whiteSpace=wrap;html=1;rounded=0;" parent="3" vertex="1">
          <mxGeometry x="781" y="347" width="80" height="80" as="geometry" />
        </mxCell>
        <mxCell id="U_tPJ1Lx-J0ZRbuGnvS1-118" style="edgeStyle=orthogonalEdgeStyle;rounded=0;orthogonalLoop=1;jettySize=auto;html=1;exitX=0.5;exitY=1;exitDx=0;exitDy=0;entryX=0.5;entryY=0;entryDx=0;entryDy=0;" parent="3" source="U_tPJ1Lx-J0ZRbuGnvS1-114" target="U_tPJ1Lx-J0ZRbuGnvS1-46" edge="1">
          <mxGeometry relative="1" as="geometry">
            <Array as="points">
              <mxPoint x="151" y="380" />
              <mxPoint x="140" y="380" />
            </Array>
          </mxGeometry>
        </mxCell>
        <mxCell id="U_tPJ1Lx-J0ZRbuGnvS1-114" value="Possui" style="rhombus;whiteSpace=wrap;html=1;rounded=0;" parent="3" vertex="1">
          <mxGeometry x="111" y="280" width="80" height="80" as="geometry" />
        </mxCell>
        <mxCell id="JLKHKsEkwaxbaODmMWDU-5" style="edgeStyle=orthogonalEdgeStyle;rounded=0;orthogonalLoop=1;jettySize=auto;html=1;exitX=0.5;exitY=1;exitDx=0;exitDy=0;entryX=0.5;entryY=0;entryDx=0;entryDy=0;" edge="1" parent="3" source="JLKHKsEkwaxbaODmMWDU-3" target="U_tPJ1Lx-J0ZRbuGnvS1-45">
          <mxGeometry relative="1" as="geometry" />
        </mxCell>
        <mxCell id="JLKHKsEkwaxbaODmMWDU-3" value="Recebe" style="rhombus;whiteSpace=wrap;html=1;rounded=0;" vertex="1" parent="3">
          <mxGeometry x="731" y="85" width="80" height="80" as="geometry" />
        </mxCell>
        <mxCell id="JLKHKsEkwaxbaODmMWDU-12" style="edgeStyle=orthogonalEdgeStyle;rounded=0;orthogonalLoop=1;jettySize=auto;html=1;exitX=0.5;exitY=0;exitDx=0;exitDy=0;entryX=1;entryY=0.5;entryDx=0;entryDy=0;" edge="1" parent="3" source="JLKHKsEkwaxbaODmMWDU-10" target="U_tPJ1Lx-J0ZRbuGnvS1-43">
          <mxGeometry relative="1" as="geometry" />
        </mxCell>
        <mxCell id="JLKHKsEkwaxbaODmMWDU-10" value="Pertence" style="rhombus;whiteSpace=wrap;html=1;rounded=0;" vertex="1" parent="3">
          <mxGeometry x="320" y="260" width="80" height="80" as="geometry" />
        </mxCell>
        <mxCell id="JLKHKsEkwaxbaODmMWDU-16" style="edgeStyle=orthogonalEdgeStyle;rounded=0;orthogonalLoop=1;jettySize=auto;html=1;exitX=0.5;exitY=0;exitDx=0;exitDy=0;entryX=1;entryY=0.5;entryDx=0;entryDy=0;" edge="1" parent="3" source="JLKHKsEkwaxbaODmMWDU-14" target="U_tPJ1Lx-J0ZRbuGnvS1-47">
          <mxGeometry relative="1" as="geometry" />
        </mxCell>
        <mxCell id="JLKHKsEkwaxbaODmMWDU-14" value="Leciona" style="rhombus;whiteSpace=wrap;html=1;rounded=0;" vertex="1" parent="3">
          <mxGeometry x="630" y="380" width="80" height="80" as="geometry" />
        </mxCell>
      </root>
    </mxGraphModel>
  </diagram>
</mxfile>
